<svg width="28" height="28" viewBox="0 0 28 28" fill="none" xmlns="http://www.w3.org/2000/svg">
<g filter="url(#filter0_ddd_425_36740)">
<circle cx="14" cy="13" r="9" fill="#379000"/>
<circle cx="14" cy="13" r="8.5" stroke="white"/>
</g>
<path d="M15.1563 17.0187L12.2938 16.0168L10.0753 16.8755C9.91631 16.9391 9.76921 16.9212 9.63403 16.8219C9.49886 16.7225 9.43127 16.5893 9.43127 16.4223V9.74313C9.43127 9.63976 9.46109 9.54832 9.52073 9.46881C9.58036 9.38929 9.66186 9.32966 9.76523 9.2899L12.2938 8.43115L15.1563 9.43303L17.3747 8.57428C17.5337 8.51067 17.6808 8.52856 17.816 8.62795C17.9512 8.72734 18.0188 8.86053 18.0188 9.02751V15.7067C18.0188 15.81 17.989 15.9015 17.9293 15.981C17.8697 16.0605 17.7882 16.1201 17.6848 16.1599L15.1563 17.0187ZM14.6792 15.8498V10.2679L12.7709 9.60001V15.1819L14.6792 15.8498Z" fill="white"/>
<defs>
<filter id="filter0_ddd_425_36740" x="0" y="0" width="28" height="28" filterUnits="userSpaceOnUse" color-interpolation-filters="sRGB">
<feFlood flood-opacity="0" result="BackgroundImageFix"/>
<feColorMatrix in="SourceAlpha" type="matrix" values="0 0 0 0 0 0 0 0 0 0 0 0 0 0 0 0 0 0 127 0" result="hardAlpha"/>
<feMorphology radius="2" operator="erode" in="SourceAlpha" result="effect1_dropShadow_425_36740"/>
<feOffset dy="3"/>
<feGaussianBlur stdDeviation="0.5"/>
<feComposite in2="hardAlpha" operator="out"/>
<feColorMatrix type="matrix" values="0 0 0 0 0 0 0 0 0 0 0 0 0 0 0 0 0 0 0.04 0"/>
<feBlend mode="normal" in2="BackgroundImageFix" result="effect1_dropShadow_425_36740"/>
<feColorMatrix in="SourceAlpha" type="matrix" values="0 0 0 0 0 0 0 0 0 0 0 0 0 0 0 0 0 0 127 0" result="hardAlpha"/>
<feOffset dy="2"/>
<feGaussianBlur stdDeviation="1"/>
<feComposite in2="hardAlpha" operator="out"/>
<feColorMatrix type="matrix" values="0 0 0 0 0 0 0 0 0 0 0 0 0 0 0 0 0 0 0.03 0"/>
<feBlend mode="normal" in2="effect1_dropShadow_425_36740" result="effect2_dropShadow_425_36740"/>
<feColorMatrix in="SourceAlpha" type="matrix" values="0 0 0 0 0 0 0 0 0 0 0 0 0 0 0 0 0 0 127 0" result="hardAlpha"/>
<feOffset dy="1"/>
<feGaussianBlur stdDeviation="2.5"/>
<feComposite in2="hardAlpha" operator="out"/>
<feColorMatrix type="matrix" values="0 0 0 0 0 0 0 0 0 0 0 0 0 0 0 0 0 0 0.03 0"/>
<feBlend mode="normal" in2="effect2_dropShadow_425_36740" result="effect3_dropShadow_425_36740"/>
<feBlend mode="normal" in="SourceGraphic" in2="effect3_dropShadow_425_36740" result="shape"/>
</filter>
</defs>
</svg>
