<svg width="28" height="28" viewBox="0 0 28 28" fill="none" xmlns="http://www.w3.org/2000/svg">
<g filter="url(#filter0_ddd_425_36748)">
<circle cx="14" cy="13" r="9" fill="#B602D4"/>
<circle cx="14" cy="13" r="8.5" stroke="white"/>
</g>
<g clip-path="url(#clip0_425_36748)">
<path d="M13.6419 10.8528H11.1363V11.5688H13.6419V10.8528Z" fill="white"/>
<path d="M18.4436 10.1369L16.6539 8.34717L16.1476 8.85335L17.2215 9.92722V11.5688C17.2217 11.7586 17.2972 11.9405 17.4314 12.0747C17.5656 12.209 17.7476 12.2845 17.9374 12.2847V16.0432C17.9374 16.1856 17.8808 16.3222 17.7801 16.4229C17.6794 16.5236 17.5429 16.5801 17.4005 16.5801C17.2581 16.5801 17.1215 16.5236 17.0208 16.4229C16.9201 16.3222 16.8635 16.1856 16.8635 16.0432V13.0006C16.8635 12.9056 16.8258 12.8146 16.7587 12.7475C16.6916 12.6803 16.6005 12.6426 16.5056 12.6426H15.0738V9.06308C15.0738 8.96814 15.036 8.87709 14.9689 8.80997C14.9018 8.74284 14.8107 8.70512 14.7158 8.70512H10.0624C9.96745 8.70512 9.87641 8.74284 9.80928 8.80997C9.74215 8.87709 9.70443 8.96814 9.70443 9.06308V16.5801H8.98853V17.296H15.7897V16.5801H15.0738V13.3585H16.1476V16.0074C16.1434 16.2992 16.2394 16.5836 16.4196 16.8132C16.5997 17.0428 16.8531 17.2038 17.1375 17.2691C17.3202 17.308 17.5093 17.3055 17.691 17.2619C17.8726 17.2184 18.0423 17.1348 18.1875 17.0173C18.3328 16.8999 18.4499 16.7515 18.5305 16.5829C18.6111 16.4144 18.6531 16.23 18.6533 16.0432V10.6433C18.6533 10.5493 18.6348 10.4561 18.5988 10.3693C18.5629 10.2824 18.5101 10.2034 18.4436 10.1369ZM13.6419 11.5688H11.1363V10.8528H13.6419V11.5688Z" fill="white"/>
</g>
<defs>
<filter id="filter0_ddd_425_36748" x="0" y="0" width="28" height="28" filterUnits="userSpaceOnUse" color-interpolation-filters="sRGB">
<feFlood flood-opacity="0" result="BackgroundImageFix"/>
<feColorMatrix in="SourceAlpha" type="matrix" values="0 0 0 0 0 0 0 0 0 0 0 0 0 0 0 0 0 0 127 0" result="hardAlpha"/>
<feMorphology radius="2" operator="erode" in="SourceAlpha" result="effect1_dropShadow_425_36748"/>
<feOffset dy="3"/>
<feGaussianBlur stdDeviation="0.5"/>
<feComposite in2="hardAlpha" operator="out"/>
<feColorMatrix type="matrix" values="0 0 0 0 0 0 0 0 0 0 0 0 0 0 0 0 0 0 0.04 0"/>
<feBlend mode="normal" in2="BackgroundImageFix" result="effect1_dropShadow_425_36748"/>
<feColorMatrix in="SourceAlpha" type="matrix" values="0 0 0 0 0 0 0 0 0 0 0 0 0 0 0 0 0 0 127 0" result="hardAlpha"/>
<feOffset dy="2"/>
<feGaussianBlur stdDeviation="1"/>
<feComposite in2="hardAlpha" operator="out"/>
<feColorMatrix type="matrix" values="0 0 0 0 0 0 0 0 0 0 0 0 0 0 0 0 0 0 0.03 0"/>
<feBlend mode="normal" in2="effect1_dropShadow_425_36748" result="effect2_dropShadow_425_36748"/>
<feColorMatrix in="SourceAlpha" type="matrix" values="0 0 0 0 0 0 0 0 0 0 0 0 0 0 0 0 0 0 127 0" result="hardAlpha"/>
<feOffset dy="1"/>
<feGaussianBlur stdDeviation="2.5"/>
<feComposite in2="hardAlpha" operator="out"/>
<feColorMatrix type="matrix" values="0 0 0 0 0 0 0 0 0 0 0 0 0 0 0 0 0 0 0.03 0"/>
<feBlend mode="normal" in2="effect2_dropShadow_425_36748" result="effect3_dropShadow_425_36748"/>
<feBlend mode="normal" in="SourceGraphic" in2="effect3_dropShadow_425_36748" result="shape"/>
</filter>
<clipPath id="clip0_425_36748">
<rect width="11.4545" height="11.4545" fill="white" transform="translate(8.27258 7.27319)"/>
</clipPath>
</defs>
</svg>
