<svg width="28" height="28" viewBox="0 0 28 28" fill="none" xmlns="http://www.w3.org/2000/svg">
<g filter="url(#filter0_ddd_425_36654)">
<circle cx="14" cy="13" r="9" fill="#B96B0C"/>
<circle cx="14" cy="13" r="8.5" stroke="white"/>
</g>
<path d="M17.3746 17.0187L14.3452 13.9892L15.0131 13.3213L18.0426 16.3507L17.3746 17.0187ZM10.8625 16.6847C10.0673 15.9055 9.60017 14.9911 9.46102 13.9415C9.32187 12.8919 9.50277 11.9099 10.0037 10.9955C10.0276 11.2658 10.0951 11.57 10.2065 11.9079C10.3178 12.2458 10.4709 12.6017 10.6657 12.9754C10.8605 13.3491 11.093 13.7327 11.3634 14.1263C11.6337 14.5199 11.9319 14.9076 12.2579 15.2892L10.8625 16.6847ZM12.9139 14.6332C12.5322 14.2516 12.1983 13.8361 11.912 13.3869C11.6258 12.9376 11.4012 12.5023 11.2382 12.0808C11.0752 11.6594 10.9837 11.2758 10.9638 10.9299C10.944 10.584 11.0175 10.3276 11.1845 10.1606C11.3515 9.98565 11.6079 9.90614 11.9538 9.92204C12.2997 9.93794 12.6853 10.0274 13.1107 10.1904C13.5361 10.3534 13.9734 10.58 14.4227 10.8702C14.8719 11.1605 15.2874 11.4964 15.6691 11.8781L12.9139 14.6332ZM16.3251 11.2221C15.9513 10.8961 15.5677 10.6019 15.1741 10.3395C14.7805 10.0771 14.3988 9.8465 14.0291 9.64772C13.6594 9.44893 13.3055 9.29189 12.9676 9.1766C12.6297 9.0613 12.3255 8.99173 12.0552 8.96787C12.9696 8.49079 13.9496 8.3258 14.9952 8.4729C16.0408 8.62 16.9453 9.07522 17.7086 9.83855L16.3251 11.2221Z" fill="white"/>
<defs>
<filter id="filter0_ddd_425_36654" x="0" y="0" width="28" height="28" filterUnits="userSpaceOnUse" color-interpolation-filters="sRGB">
<feFlood flood-opacity="0" result="BackgroundImageFix"/>
<feColorMatrix in="SourceAlpha" type="matrix" values="0 0 0 0 0 0 0 0 0 0 0 0 0 0 0 0 0 0 127 0" result="hardAlpha"/>
<feMorphology radius="2" operator="erode" in="SourceAlpha" result="effect1_dropShadow_425_36654"/>
<feOffset dy="3"/>
<feGaussianBlur stdDeviation="0.5"/>
<feComposite in2="hardAlpha" operator="out"/>
<feColorMatrix type="matrix" values="0 0 0 0 0 0 0 0 0 0 0 0 0 0 0 0 0 0 0.04 0"/>
<feBlend mode="normal" in2="BackgroundImageFix" result="effect1_dropShadow_425_36654"/>
<feColorMatrix in="SourceAlpha" type="matrix" values="0 0 0 0 0 0 0 0 0 0 0 0 0 0 0 0 0 0 127 0" result="hardAlpha"/>
<feOffset dy="2"/>
<feGaussianBlur stdDeviation="1"/>
<feComposite in2="hardAlpha" operator="out"/>
<feColorMatrix type="matrix" values="0 0 0 0 0 0 0 0 0 0 0 0 0 0 0 0 0 0 0.03 0"/>
<feBlend mode="normal" in2="effect1_dropShadow_425_36654" result="effect2_dropShadow_425_36654"/>
<feColorMatrix in="SourceAlpha" type="matrix" values="0 0 0 0 0 0 0 0 0 0 0 0 0 0 0 0 0 0 127 0" result="hardAlpha"/>
<feOffset dy="1"/>
<feGaussianBlur stdDeviation="2.5"/>
<feComposite in2="hardAlpha" operator="out"/>
<feColorMatrix type="matrix" values="0 0 0 0 0 0 0 0 0 0 0 0 0 0 0 0 0 0 0.03 0"/>
<feBlend mode="normal" in2="effect2_dropShadow_425_36654" result="effect3_dropShadow_425_36654"/>
<feBlend mode="normal" in="SourceGraphic" in2="effect3_dropShadow_425_36654" result="shape"/>
</filter>
</defs>
</svg>
