<svg width="28" height="28" viewBox="0 0 28 28" fill="none" xmlns="http://www.w3.org/2000/svg">
<g filter="url(#filter0_ddd_425_36728)">
<circle cx="14" cy="13" r="9" fill="#307080"/>
<circle cx="14" cy="13" r="8.5" stroke="white"/>
</g>
<path d="M10.8625 17.0187V8.43115H14.2021C14.9973 8.43115 15.6731 8.70945 16.2297 9.26605C16.7863 9.82265 17.0646 10.4985 17.0646 11.2937C17.0646 12.0888 16.7863 12.7647 16.2297 13.3213C15.6731 13.8779 14.9973 14.1562 14.2021 14.1562H12.7709V17.0187H10.8625ZM12.7709 12.2478H14.2975C14.5599 12.2478 14.7846 12.1544 14.9714 11.9675C15.1583 11.7807 15.2517 11.556 15.2517 11.2937C15.2517 11.0313 15.1583 10.8066 14.9714 10.6198C14.7846 10.4329 14.5599 10.3395 14.2975 10.3395H12.7709V12.2478Z" fill="white"/>
<defs>
<filter id="filter0_ddd_425_36728" x="0" y="0" width="28" height="28" filterUnits="userSpaceOnUse" color-interpolation-filters="sRGB">
<feFlood flood-opacity="0" result="BackgroundImageFix"/>
<feColorMatrix in="SourceAlpha" type="matrix" values="0 0 0 0 0 0 0 0 0 0 0 0 0 0 0 0 0 0 127 0" result="hardAlpha"/>
<feMorphology radius="2" operator="erode" in="SourceAlpha" result="effect1_dropShadow_425_36728"/>
<feOffset dy="3"/>
<feGaussianBlur stdDeviation="0.5"/>
<feComposite in2="hardAlpha" operator="out"/>
<feColorMatrix type="matrix" values="0 0 0 0 0 0 0 0 0 0 0 0 0 0 0 0 0 0 0.04 0"/>
<feBlend mode="normal" in2="BackgroundImageFix" result="effect1_dropShadow_425_36728"/>
<feColorMatrix in="SourceAlpha" type="matrix" values="0 0 0 0 0 0 0 0 0 0 0 0 0 0 0 0 0 0 127 0" result="hardAlpha"/>
<feOffset dy="2"/>
<feGaussianBlur stdDeviation="1"/>
<feComposite in2="hardAlpha" operator="out"/>
<feColorMatrix type="matrix" values="0 0 0 0 0 0 0 0 0 0 0 0 0 0 0 0 0 0 0.03 0"/>
<feBlend mode="normal" in2="effect1_dropShadow_425_36728" result="effect2_dropShadow_425_36728"/>
<feColorMatrix in="SourceAlpha" type="matrix" values="0 0 0 0 0 0 0 0 0 0 0 0 0 0 0 0 0 0 127 0" result="hardAlpha"/>
<feOffset dy="1"/>
<feGaussianBlur stdDeviation="2.5"/>
<feComposite in2="hardAlpha" operator="out"/>
<feColorMatrix type="matrix" values="0 0 0 0 0 0 0 0 0 0 0 0 0 0 0 0 0 0 0.03 0"/>
<feBlend mode="normal" in2="effect2_dropShadow_425_36728" result="effect3_dropShadow_425_36728"/>
<feBlend mode="normal" in="SourceGraphic" in2="effect3_dropShadow_425_36728" result="shape"/>
</filter>
</defs>
</svg>
